<svg xmlns="http://www.w3.org/2000/svg" viewBox="0 0 35 12" enable-background="new 0 0 35 12"><path fill="#00689d" d="m33.434 1.413c-1.398-1.405-3.832-1.413-3.858-1.413h-4.528c-.049 0-.12.032-.149.083l-1.391 2.167c-.029.045-.059.135-.059.189v3.069c0 .087-.065.147-.147.147h-4.086c-.082 0-.147-.061-.147-.147v-3.069c0-.079.065-.149.147-.149h2.532c.056 0 .124-.036.15-.082l1.395-2.167c.009-.017.009-.024.009-.033-.003-.003-.016-.008-.016-.008h-7.407c-.045 0-.078.032-.078.083v5.426c0 .087-.068.147-.149.147h-1.43c-.082 0-.147-.061-.147-.147v-5.426c-.001-.051-.04-.083-.085-.083h-5.207c-.045 0-.114.037-.143.083l-3.514 5.462c-.042.062-.129.111-.202.111h-1.994c-.049 0-.119.037-.148.083l-1.158 1.809c-.013.015-.013.029-.013.032.008.007.016.013.037.013h1.989c.041 0 .075.017.092.046.016.026.011.065-.013.101l-2.707 4.214c-.008.017-.012.029-.008.033.005.01.013.013.034.013h3.105c.054 0 .119-.036.148-.082l2.702-4.22c.046-.056.135-.105.211-.105h3.455c.085 0 .15.065.15.147v4.178c0 .046.036.082.078.082h3.104c.045 0 .084-.036.084-.082v-4.178c0-.082.065-.147.147-.147h1.43c.081 0 .149.065.149.147v4.178c0 .046.033.082.078.082h3.111c.039 0 .078-.036.078-.082v-4.178c0-.082.065-.147.147-.147h4.086c.082 0 .147.065.147.147v4.178c0 .046.033.082.084.082h3.102c.046 0 .082-.036.082-.082v-4.178c0-.082.065-.147.149-.147l2.491-.013.228.007c.029.006 2.517.078 3.901-1.264.616-.597.937-1.392.937-2.356.004-1.041-.332-1.895-.985-2.554m-22.626 4.096c0 .087-.065.147-.15.147h-2.175c-.042 0-.075-.017-.088-.049-.021-.024-.013-.062.01-.099l2.278-3.544c.016-.024.039-.037.068-.028.033.008.056.028.056.062v3.511m18.769.147h-2.71c-.042 0-.078-.012-.107-.041-.029-.028-.042-.07-.042-.106v-3.07c0-.079.065-.149.149-.149h2.484.229c.017 0 1.678.03 1.678 1.677 0 1.669-1.665 1.689-1.681 1.689"/></svg>